#N canvas 100 100 900 700 10;
#X obj 455 287 * 3;
#X obj 318 617 +~;
#X obj 448 557 +~;
#X obj 602 55 knob 50 0 5000 0 20 empty empty #191919 #696969 #E1E1E1 1 0 0 0 1 270 0 0 0;
#X obj 696 55 knob 50 0 5000 0 200 empty empty #191919 #696969 #E1E1E1 1 0 0 0 1 270 0 0 0;
#X obj 800 48 knob 50 0 1 0 0.8 empty empty #191919 #696969 #E1E1E1 1 0 0 0 1 270 0 0 0;
#X obj 894 48 knob 50 0 10000 0 500 empty empty #191919 #696969 #E1E1E1 1 0 0 0 1 270 0 0 0;
#X floatatom 594 140 8 0 0 0 - - - 12;
#X floatatom 894 140 8 0 0 0 - - - 12;
#X floatatom 800 140 8 0 0 0 - - - 12;
#X floatatom 696 140 8 0 0 0 - - - 12;
#X obj 456 -2 tgl 18 0 empty empty empty 0 -9 0 10 #fcfcfc #000000 #000000 0 1;
#X obj 509 799 output~;
#X obj 644 283 sig~;
#X obj 525 676 *~;
#X obj 680 331 else/adsr~ 0 0 0 0;
#X obj 511 -109 loadbang;
#X obj 648 -31 trigger bng bng bng bng;
#X text 594 -113 Initialise aux valeurs par défaut;
#X obj 472 460 *~;
#X obj 309 211 t f f f;
#X obj 325 278 knob 50 0 1 0 0.5 empty empty #191919 #696969 #E1E1E1 1 0 0 0 1 270 0 0 0;
#X obj 272 351 volume_smooth;
#X text 729 100 Enveloppe;
#X obj 309 -335 notein, f 9;
#X obj 309 -255 mono -high, f 13;
#X floatatom 311 -182 2 0 0 0 - - - 16;
#X floatatom 456 -182 4 0 0 0 - - - 16;
#X text 337 -186 midi note, f 10;
#X obj 309 -123 mtof, f 8;
#X obj 927 -204 ctlin;
#X obj 905 -96 route 22 23 24 25;
#X obj 919 -146 pack f f;
#X obj 794 400 keyboard 16 80 4 2 0 0 empty empty;
#X obj 511 -231 unpack f f;
#X text 503 -186 velocity;
#X obj -149 69 tgl 50 0 empty empty Test 0 -12 0 12 #191919 #e1e1e1 #e14200 0 1;
#X obj 524 -429 select 0;
#X text 377 -339 Entrée midi;
#X obj 707 -394 unpack f f;
#X msg 602 -429 69 100;
#X msg 602 -394 69 0;
#X obj 404 367 hradio 22 1 0 5 empty empty None\ Osc\ Saw\ Squ\ Tri 0 -8 0 10 #191919 #e1e1e1 #e1e1e1 0;
#X obj 525 405 selectorSIgnal;
#X obj -125 343 oscillator;
#X obj -501 343 oscillator;
#N canvas 0 50 450 300 vcf 1;
#X obj 9 0 cnv 15 151 153 empty empty Vcf 50 12 0 14 #000000 #e05200 0;
#X floatatom 79 79 4 0 1 2 Res. - - 12;
#X obj 29 31 hradio 20 1 0 4 empty empty empty 0 -8 0 10 #191919 #e1e1e1 #e1e1e1 0;
#X obj 146 198 route 0 1 2 3, f 25;
#X msg 56 318 1 0 0 0, f 11;
#X msg 147 318 0 1 0 0;
#X msg 220 318 0 0 1 0;
#X msg 302 318 0 0 0 1;
#X obj 251 385 unpack f f f f;
#X floatatom 29 79 5 0 20000 2 Cutoff - - 0;
#X obj 751 241 svf~ 800 0.5;
#X obj 395 481 *~ 0;
#X obj 476 481 *~ 0;
#X obj 553 481 *~ 0;
#X obj 612 481 *~ 0;
#X obj 518 610 outlet~ Output;
#X obj 375 52 inlet~ Input;
#X text 9 133 Output;
#X text 123 -1 Input;
#X msg 363 241 Lowpass;
#X msg 452 241 Highpass;
#X msg 549 241 Bandpass;
#X msg 648 241 Notch;
#X obj 29 108 display;
#X obj 256 71 inlet Cutoff;
#X text 9 -1 Cutoff;
#X connect 1 0 10 2;
#X connect 2 0 3 0;
#X connect 3 0 4 0;
#X connect 3 0 19 0;
#X connect 3 1 5 0;
#X connect 3 1 20 0;
#X connect 3 2 6 0;
#X connect 3 2 21 0;
#X connect 3 3 7 0;
#X connect 3 3 22 0;
#X connect 4 0 8 0;
#X connect 5 0 8 0;
#X connect 6 0 8 0;
#X connect 7 0 8 0;
#X connect 8 0 11 1;
#X connect 8 1 12 1;
#X connect 8 2 13 1;
#X connect 8 3 14 1;
#X connect 9 0 10 1;
#X connect 10 0 11 0;
#X connect 10 1 12 0;
#X connect 10 2 13 0;
#X connect 10 3 14 0;
#X connect 11 0 15 0;
#X connect 12 0 15 0;
#X connect 13 0 15 0;
#X connect 14 0 15 0;
#X connect 16 0 10 0;
#X connect 19 0 23 0;
#X connect 20 0 23 0;
#X connect 21 0 23 0;
#X connect 22 0 23 0;
#X connect 24 0 9 0;
#X coords 0 0 1 1 152 154 2 7 0;
#X restore 689 605 pd vcf;
#X obj 660 550 gate~ 2;
#X obj 654 430 hradio 31 1 0 2 empty empty Direct\ Vcf 0 -8 0 12 #191919 #e1e1e1 #e14200 0;
#X obj 670 506 + 1;
#X obj 214 777 vsl 20 100 0 1 0 0 empty empty empty 0 -9 0 10 #191919 #e1e1e1 #e1e1e1 0 1;
#X obj 69 792 rms~;
#X obj 87 656 env~;
#X obj 186 617 vsl 20 100 0 1 0 0 empty empty empty 0 -9 0 10 #191919 #e1e1e1 #e1e1e1 0 1;
#X obj -357 178 lfo;
#X obj -626 118 hsl 128 15 0.1 100 1 0 empty empty empty -2 -8 0 10 #dcdcdc #000000 #000000 0 1;
#X msg -393 112 0;
#X obj -304 118 hsl 128 17 5 127 0 0 empty empty empty -2 -8 0 10 #191919 #e1e1e1 #e1e1e1 0 1;
#X obj -476 204 vsl 19 80 0 127 0 0 dsfsdgs sddfjhgj empty 0 -9 0 10 #dcdcdc #000000 #000000 0 1;
#X floatatom -229 202 4 0 0 0 - - - 16;
#X obj -362 241 * 0.05;
#X obj -382 286 +;
#X connect 0 0 43 0;
#X connect 1 0 2 0;
#X connect 2 0 47 1;
#X connect 3 0 7 0;
#X connect 4 0 10 0;
#X connect 5 0 9 0;
#X connect 6 0 8 0;
#X connect 7 0 15 2;
#X connect 8 0 15 5;
#X connect 9 0 15 4;
#X connect 10 0 15 3;
#X connect 11 0 13 0;
#X connect 13 0 15 0;
#X connect 14 0 51 0;
#X connect 14 0 52 0;
#X connect 14 0 12 0;
#X connect 14 0 12 1;
#X connect 15 0 14 1;
#X connect 16 0 17 0;
#X connect 17 0 6 0;
#X connect 17 1 5 0;
#X connect 17 2 4 0;
#X connect 17 3 3 0;
#X connect 19 0 2 1;
#X connect 20 0 61 1;
#X connect 20 1 44 0;
#X connect 20 2 0 0;
#X connect 21 0 22 0;
#X connect 22 0 19 1;
#X connect 24 0 25 0;
#X connect 24 1 25 1;
#X connect 25 0 26 0;
#X connect 25 1 27 0;
#X connect 26 0 29 0;
#X connect 27 0 11 0;
#X connect 29 0 20 0;
#X connect 30 0 32 1;
#X connect 30 1 32 0;
#X connect 31 0 7 0;
#X connect 31 1 10 0;
#X connect 31 2 9 0;
#X connect 31 3 8 0;
#X connect 32 0 31 0;
#X connect 33 0 34 0;
#X connect 34 0 26 0;
#X connect 34 1 27 0;
#X connect 36 0 37 0;
#X connect 37 0 41 0;
#X connect 37 1 40 0;
#X connect 39 0 33 0;
#X connect 39 1 33 1;
#X connect 40 0 39 0;
#X connect 41 0 39 0;
#X connect 42 0 43 1;
#X connect 43 0 19 0;
#X connect 44 0 1 1;
#X connect 45 0 1 0;
#X connect 46 0 14 0;
#X connect 47 0 14 0;
#X connect 47 1 46 1;
#X connect 48 0 49 0;
#X connect 49 0 47 0;
#X connect 51 0 50 0;
#X connect 52 0 53 0;
#X connect 54 0 58 0;
#X connect 55 0 54 0;
#X connect 56 0 54 1;
#X connect 57 0 54 2;
#X connect 58 0 60 0;
#X connect 59 0 60 1;
#X connect 60 0 61 0;
#X connect 61 0 44 0;
#X coords 0 0 1 1 200 140 0;
