#N canvas 100 100 900 700 10;
#X floatatom 353 161 10 0 0 0 - - - 24;
#X obj 356 123 hsl 153 18 20 2000 1 1 empty empty empty -2 -9 0 10 #fcfcfc #000000 #000000 7948 1;
#X obj 170 378 * 1;
#X obj 330 304 * 2;
#X obj 455 287 * 3;
#X obj 330 346 osc~;
#X obj 455 340 osc~;
#X obj 335 497 +~;
#X obj 448 557 +~;
#X obj 602 55 knob 50 0 5000 0 20 empty empty #191919 #696969 #E1E1E1 1 0 0 0 1 270 0 0 0;
#X obj 696 55 knob 50 0 5000 0 200 empty empty #191919 #696969 #E1E1E1 1 0 0 0 1 270 0 0 0;
#X obj 800 48 knob 50 0 1 0 0.8 empty empty #191919 #696969 #E1E1E1 1 0 0 0 1 270 0 0 0;
#X obj 894 48 knob 50 0 10000 0 500 empty empty #191919 #696969 #E1E1E1 1 0 0 0 1 270 0 0 0;
#X floatatom 594 140 8 0 0 0 - - - 12;
#X floatatom 894 140 8 0 0 0 - - - 12;
#X floatatom 800 140 8 0 0 0 - - - 12;
#X floatatom 696 140 8 0 0 0 - - - 12;
#X obj 456 -2 tgl 61 0 empty empty empty 0 -9 0 10 #fcfcfc #000000 #000000 0 1;
#X obj 644 631 output~;
#X obj 644 283 sig~;
#X obj 617 557 *~;
#X obj 680 331 else/adsr~ 0 0 0 0;
#X obj 353 86 float 440;
#X obj 363 36 bng 25 250 50 0 empty empty empty 17 7 0 10 #191919 #e1e1e1 #e1e1e1;
#X obj 511 -109 loadbang;
#X obj 648 -31 trigger bng bng bng bng;
#X text 594 -110 Initialise aux valeurs par défaut;
#X obj -74 115 knob 50 0 1 0 0.5 empty empty #191919 #696969 #E1E1E1 1 0 0 0 1 270 0 0 0;
#X obj 56 602 *~;
#X obj 41 115 knob 50 0 1 0 0.5 empty empty #191919 #696969 #E1E1E1 1 0 0 0 1 270 0 0 0;
#X obj 358 408 *~;
#X obj 448 386 *~;
#X obj -74 234 volume_smooth;
#X obj 41 234 volume_smooth;
#X obj 309 211 t f f f;
#X obj 160 115 knob 50 0 1 0 0.5 empty empty #191919 #696969 #E1E1E1 1 0 0 0 1 270 0 0 0;
#X obj 160 234 volume_smooth;
#X text 729 103 Enveloppe;
#X obj 309 -335 notein, f 9;
#X obj 309 -255 mono -high, f 13;
#X floatatom 311 -182 2 0 0 0 - - - 16;
#X floatatom 456 -182 4 0 0 0 - - - 16;
#X text 337 -183 midi note, f 10;
#X obj 309 -123 mtof, f 8;
#X obj 927 -204 ctlin;
#X obj 905 -96 route 22 23 24 25;
#X obj 919 -146 pack f f;
#X obj 170 479 square~;
#X obj 170 423 osc~;
#X obj 67 423 else/saw~;
#X obj -40 514 *~;
#X obj -180 373 == 0;
#X obj -111 378 == 1;
#X obj -165 503 *~;
#X obj -106 605 +~;
#X obj 533 -348 keyboard 16 80 4 2 0 0 empty empty;
#X obj 511 -231 unpack f f;
#X text 503 -183 velocity;
#X obj -332 219 tgl 25 0 empty empty empty 17 7 0 10 #191919 #e1e1e1 #e1e1e1 0 1;
#X obj 524 -429 select 0;
#X text 377 -336 Entrée midi;
#X obj 707 -394 unpack f f;
#X msg 602 -429 69 100;
#X msg 602 -394 69 0;
#X obj 266 479 tri~;
#X obj -242 287 hradio 20 1 0 5 empty empty waveform 0 -8 0 10 #191919 #e1e1e1 #e1e1e1 0;
#X connect 0 0 34 0;
#X connect 1 0 0 0;
#X connect 2 0 48 0;
#X connect 2 0 49 0;
#X connect 3 0 5 0;
#X connect 4 0 6 0;
#X connect 5 0 30 0;
#X connect 6 0 31 0;
#X connect 7 0 8 0;
#X connect 8 0 20 0;
#X connect 9 0 13 0;
#X connect 10 0 16 0;
#X connect 11 0 15 0;
#X connect 12 0 14 0;
#X connect 13 0 21 2;
#X connect 14 0 21 5;
#X connect 15 0 21 4;
#X connect 16 0 21 3;
#X connect 17 0 19 0;
#X connect 19 0 21 0;
#X connect 20 0 18 0;
#X connect 21 0 20 1;
#X connect 22 0 1 0;
#X connect 23 0 22 0;
#X connect 24 0 25 0;
#X connect 24 0 23 0;
#X connect 24 0 27 0;
#X connect 24 0 29 0;
#X connect 25 0 12 0;
#X connect 25 1 11 0;
#X connect 25 2 10 0;
#X connect 25 3 9 0;
#X connect 27 0 32 0;
#X connect 28 0 7 0;
#X connect 29 0 33 0;
#X connect 30 0 7 1;
#X connect 31 0 8 1;
#X connect 32 0 28 1;
#X connect 33 0 30 1;
#X connect 34 0 2 0;
#X connect 34 1 3 0;
#X connect 34 2 4 0;
#X connect 35 0 36 0;
#X connect 36 0 31 1;
#X connect 38 0 39 0;
#X connect 38 1 39 1;
#X connect 39 0 40 0;
#X connect 39 1 41 0;
#X connect 40 0 43 0;
#X connect 41 0 17 0;
#X connect 43 0 34 0;
#X connect 44 0 46 1;
#X connect 44 1 46 0;
#X connect 45 0 13 0;
#X connect 45 1 16 0;
#X connect 45 2 15 0;
#X connect 45 3 14 0;
#X connect 46 0 45 0;
#X connect 48 0 53 0;
#X connect 49 0 50 0;
#X connect 50 0 54 1;
#X connect 51 0 53 1;
#X connect 52 0 50 1;
#X connect 53 0 54 0;
#X connect 54 0 28 0;
#X connect 55 0 56 0;
#X connect 56 0 40 0;
#X connect 56 1 41 0;
#X connect 58 0 59 0;
#X connect 59 0 63 0;
#X connect 59 1 62 0;
#X connect 61 0 55 0;
#X connect 61 1 55 1;
#X connect 62 0 61 0;
#X connect 63 0 61 0;
#X connect 65 0 51 0;
#X connect 65 0 52 0;
