#N canvas 0 50 450 300 8;
#X obj 740 1091 output~;
#X obj 858 888 saw~;
#X obj 989 888 square~;
#X obj 667 888 osc~;
#X obj 726 936 *~ 0;
#X obj 936 936 *~ 0;
#X obj 1067 942 *~ 0, f 7;
#X obj 948 566 route 0 1 2 3 4, f 25;
#X obj 1148 888 tri~;
#X obj 1259 942 *~ 0, f 7;
#X obj 647 192 inlet Frequency;
#X msg 1305 601 Pas de signal;
#X obj 999 827 unpack f f f f s;
#X msg 803 637 0 0 0 0, f 11;
#X msg 1015 643 0 1 0 0 Saw;
#X msg 894 637 1 0 0 0 Osc;
#X msg 1218 643 0 0 0 1 Tri;
#X msg 1127 643 0 0 1 0 Squ;
#X obj 1309 712 print;
#X obj 276 574 volume_smooth;
#X obj 1045 1307 outlet~ Output signal;
#X obj 767 450 * 1;
#N canvas 0 50 450 300 panel 1;
#X obj 3 3 cnv 15 334 184 empty empty Oscillator 150 12 0 14 #000000 #e15300 0;
#X obj 48 42 hradio 26 1 0 4 \$0-waveForm empty None\ Osc\ Saw\ Squ\ Tri 0 -8 0 12 #191919 #e1e1e1 #e1e1e1 0;
#X floatatom 113 133 9 -12 12 2 Detune. - \$0-fbxDetune 12;
#X obj 55 119 knob 32 0 1 0 0.5 \$0-volume empty #191919 #696969 #E1E1E1 1 0 0 0 1 270 0 0 0;
#X text 55 95 Vol., f 12;
#X text 13 168 Output;
#X text 13 2 Input;
#X coords 0 0 1 1 339 188 1 0 0;
#X restore 81 231 pd panel;
#X obj 925 486 r \$0-waveForm;
#X obj 166 502 r \$0-volume;
#X obj 810 284 r \$0-fbxDetune;
#X floatatom 267 364 9 0 0 2 Freq. - - 12;
#X obj 763 348 +;
#X obj 847 1329 *~;
#X connect 1 0 5 0;
#X connect 2 0 6 0;
#X connect 3 0 4 0;
#X connect 4 0 0 0;
#X connect 4 0 28 1;
#X connect 5 0 0 0;
#X connect 5 0 28 1;
#X connect 6 0 0 0;
#X connect 6 0 28 1;
#X connect 7 0 13 0;
#X connect 7 0 11 0;
#X connect 7 1 15 0;
#X connect 7 2 14 0;
#X connect 7 3 17 0;
#X connect 7 4 16 0;
#X connect 7 5 11 0;
#X connect 7 5 13 0;
#X connect 8 0 9 0;
#X connect 9 0 0 0;
#X connect 9 0 28 1;
#X connect 10 0 27 0;
#X connect 11 0 18 0;
#X connect 12 0 4 1;
#X connect 12 1 5 1;
#X connect 12 2 6 1;
#X connect 12 3 9 1;
#X connect 12 4 18 0;
#X connect 13 0 12 0;
#X connect 14 0 12 0;
#X connect 15 0 12 0;
#X connect 16 0 12 0;
#X connect 17 0 12 0;
#X connect 19 0 28 0;
#X connect 21 0 3 0;
#X connect 23 0 7 0;
#X connect 24 0 19 0;
#X connect 25 0 27 1;
#X connect 26 0 1 0;
#X connect 26 0 2 0;
#X connect 26 0 8 0;
#X connect 26 0 21 0;
#X connect 27 0 26 0;
#X connect 28 0 20 0;
#X coords 0 0 1 1 341 188 1 80 232;
