#N canvas 0 0 450 300 10;
#X obj 50 50 hsl 100 1 0 0 forme;
#X connect 0 0 0 0;
#X obj 50 100 route 0 1 2 3;
#X obj 50 150 t b b;
#X obj 100 150 select 0 1 2 3;
#X connect 0 0 8 0;
#X connect 8 0 2 0;
#X obj 150 150 saw~;
#X obj 150 200 square~;
#X obj 150 250 tri~;
#X obj 150 300 sine~;
#X obj 250 200 dac~;
#X connect 0 0 1 0;
#X connect 1 0 2 0;
#X connect 2 0 4 0;
#X connect 2 1 4 0;
#X connect 2 2 5 0;
#X connect 2 3 6 0;
#X connect 3 0 7 0;
#X connect 4 0 7 0;
#X connect 5 0 7 0;
#X connect 6 0 7 0;