#N canvas 0 50 450 300 8;
#X obj 93 50 hradio 20 1 0 5 empty empty 0\ osc\ saw\ squ\ tri 0 -8 0 10 #191919 #e1e1e1 #e1e1e1 0;
#X obj 247 711 output~;
#X obj 365 508 saw~;
#X obj 496 508 square~;
#X floatatom 151 241 5 0 0 0 - - - 24;
#X obj 127 416 osc~;
#X obj 220 470 *~ 0;
#X obj 443 556 *~ 0;
#X obj 574 562 *~ 0, f 7;
#X obj 369 83 route 0 1 2 3 4, f 25;
#X obj 655 508 tri~;
#X obj 766 562 *~ 0, f 7;
#X obj 571 750 outlet~;
#X obj 93 187 inlet Frequency;
#X obj 417 40 inlet Waveform;
#X msg 666 225 Sinusoidale;
#X msg 765 225 Dents de scie;
#X msg 876 225 Carrée;
#X msg 954 225 Triangle;
#X msg 1032 225 Pas de signal;
#X text 207 49 Pour tester;
#X obj 420 344 unpack f f f f s;
#X msg 224 154 0 0 0 0, f 11;
#X msg 436 160 0 1 0 0 Saw;
#X msg 315 154 1 0 0 0 Osc;
#X msg 639 160 0 0 0 1 Tri;
#X msg 548 160 0 0 1 0 Squ;
#X obj 1036 336 print;
#N canvas 0 50 450 300 oscillator 1;
#X obj 402 440 cnv 15 324 209 empty empty Oscillator 18 12 0 16 #000000 #e10002 0;
#X obj 449 508 hradio 22 1 0 5 empty empty None\ Osc\ Saw\ Squ\ Tri 0 -8 0 10 #191919 #e1e1e1 #e1e1e1 0;
#X floatatom 578 542 5 0 0 0 - - - 16;
#X obj 428 557 knob 32 0 1 0 0.5 empty empty #191919 #696969 #E1E1E1 1 0 0 0 1 270 0 0 0;
#X obj 526 569 hsl 153 15 20 2000 1 1 empty empty empty -2 -9 0 10 #fcfcfc #000000 #000000 10202 1;
#X obj 484 557 bng 27 250 50 0 empty empty 440Hz -5 -10 0 10 #191919 #e1e1e1 #e1e1e1;
#X text 641 630 Output signal;
#X text 408 630 Volume;
#X restore 723 32 pd oscillator;
#X connect 0 0 9 0;
#X connect 2 0 7 0;
#X connect 3 0 8 0;
#X connect 4 0 5 0;
#X connect 4 0 2 0;
#X connect 4 0 3 0;
#X connect 4 0 10 0;
#X connect 5 0 6 0;
#X connect 6 0 12 0;
#X connect 6 0 1 0;
#X connect 7 0 12 0;
#X connect 7 0 1 0;
#X connect 8 0 12 0;
#X connect 8 0 1 0;
#X connect 9 0 22 0;
#X connect 9 0 19 0;
#X connect 9 1 24 0;
#X connect 9 2 23 0;
#X connect 9 3 26 0;
#X connect 9 4 25 0;
#X connect 9 5 19 0;
#X connect 9 5 22 0;
#X connect 10 0 11 0;
#X connect 11 0 12 0;
#X connect 11 0 1 0;
#X connect 13 0 4 0;
#X connect 14 0 9 0;
#X connect 19 0 27 0;
#X connect 21 0 6 1;
#X connect 21 1 7 1;
#X connect 21 2 8 1;
#X connect 21 3 11 1;
#X connect 21 4 27 0;
#X connect 22 0 21 0;
#X connect 23 0 21 0;
#X connect 24 0 21 0;
#X connect 25 0 21 0;
#X connect 26 0 21 0;
