#N canvas 827 239 527 327 12;
#X obj 294 798 output~;
#X obj 531 712 scope~ 239 152 2 3 256 -1 1 100 0 0 0 225 225 225 25 25 25 105 105 105 0 empty;
#X obj 134 236 bl.saw~;
#X obj 134 -96 notein;
#X obj 134 -16 mono -high;
#X floatatom 134 45 5 0 0 0 - - - 0;
#X floatatom 765 79 5 0 0 0 - - - 0;
#X text 818 78 velocity;
#X text 50 44 midi note;
#X obj 134 116 mtof, f 8;
#X floatatom 134 181 5 0 0 0 - - - 0;
#X obj 381 603 *~;
#X obj 765 258 tgl 25 0 empty empty empty 17 7 0 10 #191919 #e1e1e1 #e1e1e1 0 1;
#X text 327 602 vca, f 6;
#X text 782 188 Gate - permet de déclencher une note si velocité > 0;
#X text 635 467 Envoi 0 ou 1 (note on), f 19;
#X obj 765 356 adsr~ 1 250 0.5 500;
#X obj 206 552 lowpass~ 10000 0.7;
#X floatatom 298 159 5 0 0 0 - - - 16;
#X obj 298 218 f2s~ 20, f 8;
#X obj 298 376 clip~ 20 20000;
#X obj 301 79 hsl 109 22 0 127 0 1 empty empty Cutoff -2 -8 0 10 #191919 #e1e1e1 #e1e1e1 6322 1;
#X obj 298 303 mtof~;
#X floatatom 483 159 7 0 0 0 - - - 16;
#X obj 483 218 f2s~ 20, f 8;
#X obj 477 79 hsl 109 20 0 127 0 1 empty empty Env\ amount -2 -8 0 10 #191919 #e1e1e1 #e1e1e1 3177 1;
#X obj 310 270 +~;
#X obj 493 281 *~;
#X obj 381 712 *~ 1;
#X floatatom 474 436 5 0 0 0 - - - 16;
#X obj 474 495 f2s~ 20, f 8;
#X obj 477 356 hsl 109 22 0.4 7 1 1 empty empty Resonance -2 -8 0 10 #191919 #e1e1e1 #e1e1e1 7771 1;
#X obj 381 649 drive~;
#X obj 880 279 nbx 4 18 1 1000 0 1 empty empty Attack 0 -8 0 10 #191919 #e1e1e1 #e1e1e1 90 256;
#X text 188 375 Prevent clicking >, f 19;
#X connect 2 0 17 0;
#X connect 3 0 4 0;
#X connect 3 1 4 1;
#X connect 4 0 5 0;
#X connect 4 1 6 0;
#X connect 5 0 9 0;
#X connect 6 0 12 0;
#X connect 9 0 10 0;
#X connect 10 0 2 0;
#X connect 11 0 32 0;
#X connect 12 0 16 0;
#X connect 16 0 11 1;
#X connect 16 0 27 1;
#X connect 17 0 11 0;
#X connect 18 0 19 0;
#X connect 19 0 26 0;
#X connect 20 0 17 1;
#X connect 21 0 18 0;
#X connect 22 0 20 0;
#X connect 23 0 24 0;
#X connect 24 0 27 0;
#X connect 25 0 23 0;
#X connect 26 0 22 0;
#X connect 27 0 26 1;
#X connect 28 0 0 0;
#X connect 28 0 1 0;
#X connect 29 0 30 0;
#X connect 30 0 17 2;
#X connect 31 0 29 0;
#X connect 32 0 28 0;
#X connect 33 0 16 2;
