#N canvas 827 239 527 327 12;
#X obj 188 59 bng 25 250 50 0 empty empty empty 17 7 0 10 #191919 #e1e1e1 #e1e1e1;
#X floatatom 133 229 5 0 0 0 - - - 0;
#X obj 186 127 float;
#X obj 323 198 + 1;
#X msg 337 81 0;
#X obj 679 87 bng 25 250 50 0 empty empty empty 17 7 0 10 #191919 #e1e1e1 #e1e1e1;
#X msg 670 165 Hello;
#X msg 785 165 You;
#X obj 731 251 print;
#X msg 581 279 10;
#X obj 581 358 +, f 11;
#X obj 581 416 print;
#X obj 497 453 knob 50 1 1000 0 0 empty empty #191919 #696969 #E1E1E1 1 0 0 0 1 270 0 0 100;
#X obj 384 728 output~;
#X obj 538 719 scope~ 167 53 256 3 128 -1 1 0 0 0 0 225 225 225 25 25 25 105 105 105 0 empty;
#X obj 538 575 f2s~;
#X obj 487 637 saw~ 440;
#X obj 330 652 square~ 110;
#X obj 797 464 keyname;
#X obj 808 508 tgl 25 0 empty empty empty 17 7 0 10 #191919 #e1e1e1 #e1e1e1 0 1;
#X symbolatom 884 550 10 0 0 0 - - - 0;
#X obj 769 562 sig~;
#X obj 920 631 osc~ 1000;
#X obj 864 710 *~;
#X obj 843 838 output~;
#X obj 734 601 adsr~ 1000 5000 1 5000;
#X listbox -203 254 20 0 0 0 - - - 0;
#X msg -213 183 8 Hello You 1 2 3 \, comment ca va 10 20;
#X obj -203 770 oscbank~;
#X floatatom -269 635 4 0 0 0 - - - 24;
#X obj -193 484 pack f f f f f;
#X obj 179 438 rand.f 1 10;
#X obj -46 438 rand.f 1 10;
#X obj -147 438 rand.f 1 10;
#X obj 63 438 rand.f 1 10;
#X obj -148 344 tgl 21 0 empty empty empty 0 -11 0 12 #fcfcfc #000000 #000000 0 1;
#X listbox -34 544 0 0 0 0 - - - 24;
#X msg -166 719 ratio \$1 \$2 \$3 \$4 \$5 \, amp 0.9 0.6 0.3 0.2 0.1;
#X obj -166 825 output~;
#X obj -11 601 unpack f f f f f;
#X floatatom -80 647 5 0 0 0 - - - 16;
#X obj -258 438 rand.i 1 10;
#X floatatom 18 647 7 0 0 0 - - - 16;
#X msg 198 829 1 2 3 4;
#X obj 211 913 list store a b c d;
#X listbox 202 965 19 0 0 0 - - - 16;
#X msg 63 871 set 2 u;
#X msg 124 831 get 3;
#X msg 58 913 delete 1;
#X msg 48 953 prepend z x;
#X msg 90 1011 append 9;
#X obj -185 386 metro 850, f 15;
#X connect 0 0 2 0;
#X connect 2 0 1 0;
#X connect 2 0 3 0;
#X connect 3 0 2 1;
#X connect 4 0 2 0;
#X connect 5 0 7 0;
#X connect 5 0 6 0;
#X connect 6 0 8 0;
#X connect 7 0 8 0;
#X connect 9 0 10 0;
#X connect 9 0 10 1;
#X connect 10 0 11 0;
#X connect 12 0 15 0;
#X connect 15 0 16 0;
#X connect 15 0 17 0;
#X connect 16 0 13 0;
#X connect 16 0 14 0;
#X connect 18 0 19 0;
#X connect 18 1 20 0;
#X connect 19 0 21 0;
#X connect 21 0 25 0;
#X connect 22 0 23 1;
#X connect 23 0 24 0;
#X connect 25 0 23 0;
#X connect 27 0 26 0;
#X connect 28 0 38 0;
#X connect 29 0 28 0;
#X connect 30 0 36 0;
#X connect 30 0 37 0;
#X connect 31 0 30 4;
#X connect 32 0 30 2;
#X connect 33 0 30 1;
#X connect 34 0 30 3;
#X connect 35 0 51 0;
#X connect 36 0 39 0;
#X connect 37 0 28 0;
#X connect 39 0 40 0;
#X connect 39 1 42 0;
#X connect 41 0 30 0;
#X connect 43 0 44 0;
#X connect 44 0 45 0;
#X connect 46 0 44 0;
#X connect 47 0 44 0;
#X connect 48 0 44 0;
#X connect 49 0 44 0;
#X connect 50 0 44 0;
#X connect 51 0 33 0;
#X connect 51 0 32 0;
#X connect 51 0 34 0;
#X connect 51 0 31 0;
#X connect 51 0 41 0;
